<?xml version="1.0" encoding="UTF-8"?>
<svg xmlns="http://www.w3.org/2000/svg" viewBox="0 0 104.17 67.51">
  <path d="m98.89,67.51H5.29c-2.92,0-5.29-2.37-5.29-5.29V5.29C0,2.37,2.37,0,5.29,0h93.6c2.92,0,5.29,2.37,5.29,5.29v56.93c0,2.92-2.37,5.29-5.29,5.29ZM5.29,3.77c-.84,0-1.52.68-1.52,1.52v56.93c0,.84.68,1.52,1.52,1.52h93.6c.84,0,1.52-.68,1.52-1.52V5.29c0-.84-.68-1.52-1.52-1.52H5.29Z"/>
  <circle cx="27.76" cy="13.97" r="1.88"/>
  <circle cx="27.76" cy="53.73" r="1.88"/>
  <circle cx="76.64" cy="53.73" r="1.88"/>
  <circle cx="76.64" cy="13.97" r="1.88"/>
  <path d="m77.27,43.46h-1.26v-1.26h1.26v1.26Zm0-2.51h-1.26v-1.26h1.26v1.26Zm0-2.51h-1.26v-1.25h1.26v1.25Zm0-2.51h-1.26v-1.26h1.26v1.26Zm0,15.08h-1.26v-1.26h1.26v1.26Zm0-2.51h-1.26v-1.26h1.26v1.26Zm0-2.51h-1.26v-1.25h1.26v1.25Zm0-2.51h-1.26v-1.26h1.26v1.26Zm0-10.06h-1.26v-1.26h1.26v1.26Zm0,0h-1.26v-1.26h1.26v1.26Zm0-2.51h-1.26v-1.26h1.26v1.26Zm0,0h-1.26v-1.26h1.26v1.26Zm0,2.51h-1.26v-1.26h1.26v1.26Zm0-2.51h-1.26v-1.26h1.26v1.26Zm0,0h-1.26v-1.25h1.26v1.25Zm0,2.52h-1.26v-1.26h1.26v1.26Zm0-2.51h-1.26v-1.26h1.26v1.26Zm0,0h-1.26v-1.26h1.26v1.26Zm0,0h-1.26v-1.26h1.26v1.26Zm0,0h-1.26v-1.26h1.26v1.26Zm0-2.51h-1.26v-1.26h1.26v1.26Zm0-2.51h-1.26v-1.26h1.26v1.26Zm0,0h-1.26v-1.26h1.26v1.26Zm0,0h-1.26v-1.26h1.26v1.26Zm0,0h-1.26v-1.26h1.26v1.26Zm0,0h-1.26v-1.25h1.26v1.25Zm0,0h-1.26v-1.26h1.26v1.26Zm0,0h-1.26v-1.26h1.26v1.26Zm0,0h-1.26v-1.26h1.26v1.26Zm0,0h-1.26v-1.26h1.26v1.26Zm0-2.51h-1.26v-1.26h1.26v1.26Zm0-2.51h-1.26v-1.26h1.26v1.26Zm0,0h-1.26v-1.26h1.26v1.26Zm0-2.51h-1.26v-1.26h1.26v1.26Z"/>
  <path d="m28.39,43.46h-1.26v-1.26h1.26v1.26Zm0-2.51h-1.26v-1.26h1.26v1.26Zm0-2.51h-1.26v-1.25h1.26v1.25Zm0-2.51h-1.26v-1.26h1.26v1.26Zm0,15.08h-1.26v-1.26h1.26v1.26Zm0-2.51h-1.26v-1.26h1.26v1.26Zm0-2.51h-1.26v-1.25h1.26v1.25Zm0-2.51h-1.26v-1.26h1.26v1.26Zm0-10.06h-1.26v-1.26h1.26v1.26Zm0,0h-1.26v-1.26h1.26v1.26Zm0-2.51h-1.26v-1.26h1.26v1.26Zm0,0h-1.26v-1.26h1.26v1.26Zm0,2.51h-1.26v-1.26h1.26v1.26Zm0-2.51h-1.26v-1.26h1.26v1.26Zm0,0h-1.26v-1.25h1.26v1.25Zm0,2.52h-1.26v-1.26h1.26v1.26Zm0-2.51h-1.26v-1.26h1.26v1.26Zm0,0h-1.26v-1.26h1.26v1.26Zm0,0h-1.26v-1.26h1.26v1.26Zm0,0h-1.26v-1.26h1.26v1.26Zm0-2.51h-1.26v-1.26h1.26v1.26Zm0-2.51h-1.26v-1.26h1.26v1.26Zm0,0h-1.26v-1.26h1.26v1.26Zm0,0h-1.26v-1.26h1.26v1.26Zm0,0h-1.26v-1.26h1.26v1.26Zm0,0h-1.26v-1.25h1.26v1.25Zm0,0h-1.26v-1.26h1.26v1.26Zm0,0h-1.26v-1.26h1.26v1.26Zm0,0h-1.26v-1.26h1.26v1.26Zm0,0h-1.26v-1.26h1.26v1.26Zm0-2.51h-1.26v-1.26h1.26v1.26Zm0-2.51h-1.26v-1.26h1.26v1.26Zm0,0h-1.26v-1.26h1.26v1.26Zm0-2.51h-1.26v-1.26h1.26v1.26Z"/>
  <path d="m36.69,14.6v-1.26h1.26v1.26h-1.26Zm2.51,0v-1.26h1.26v1.26h-1.26Zm2.51,0v-1.26h1.25v1.26h-1.25Zm2.51,0v-1.26h1.26v1.26h-1.26Zm-12.57,0v-1.26h1.26v1.26h-1.26Zm2.51,0v-1.26h1.26v1.26h-1.26Zm2.51,0v-1.26h1.25v1.26h-1.25Zm2.51,0v-1.26h1.26v1.26h-1.26Zm7.54,0v-1.26h1.26v1.26h-1.26Zm0,0v-1.26h1.26v1.26h-1.26Zm2.51,0v-1.26h1.26v1.26h-1.26Zm0,0v-1.26h1.26v1.26h-1.26Zm-2.51,0v-1.26h1.26v1.26h-1.26Zm2.51,0v-1.26h1.26v1.26h-1.26Zm0,0v-1.26h1.25v1.26h-1.25Zm-2.52,0v-1.26h1.26v1.26h-1.26Zm2.51,0v-1.26h1.26v1.26h-1.26Zm0,0v-1.26h1.26v1.26h-1.26Zm0,0v-1.26h1.26v1.26h-1.26Zm0,0v-1.26h1.26v1.26h-1.26Zm0,0v-1.26h1.25v1.26h-1.25Zm2.51,0v-1.26h1.26v1.26h-1.26Zm2.51,0v-1.26h1.26v1.26h-1.26Zm0,0v-1.26h1.26v1.26h-1.26Zm2.51,0v-1.26h1.26v1.26h-1.26Zm0,0v-1.26h1.26v1.26h-1.26Zm-2.51,0v-1.26h1.26v1.26h-1.26Zm2.51,0v-1.26h1.26v1.26h-1.26Zm0,0v-1.26h1.25v1.26h-1.25Zm-2.52,0v-1.26h1.26v1.26h-1.26Zm2.51,0v-1.26h1.26v1.26h-1.26Zm0,0v-1.26h1.26v1.26h-1.26Zm0,0v-1.26h1.26v1.26h-1.26Zm0,0v-1.26h1.26v1.26h-1.26Zm0,0v-1.26h1.26v1.26h-1.26Zm0,0v-1.26h1.26v1.26h-1.26Zm2.51,0v-1.26h1.26v1.26h-1.26Zm0,0v-1.26h1.26v1.26h-1.26Zm-2.51,0v-1.26h1.26v1.26h-1.26Zm2.51,0v-1.26h1.26v1.26h-1.26Zm0,0v-1.26h1.25v1.26h-1.25Zm-2.52,0v-1.26h1.26v1.26h-1.26Zm2.51,0v-1.26h1.26v1.26h-1.26Zm0,0v-1.26h1.26v1.26h-1.26Zm0,0v-1.26h1.26v1.26h-1.26Zm0,0v-1.26h1.26v1.26h-1.26Zm0,0v-1.26h1.26v1.26h-1.26Zm0,0v-1.26h1.26v1.26h-1.26Zm0,0v-1.26h1.26v1.26h-1.26Zm0,0v-1.26h1.25v1.26h-1.25Zm0,0v-1.26h1.26v1.26h-1.26Zm0,0v-1.26h1.26v1.26h-1.26Zm0,0v-1.26h1.26v1.26h-1.26Zm0,0v-1.26h1.26v1.26h-1.26Zm0,0v-1.26h1.26v1.26h-1.26Zm0,0v-1.26h1.26v1.26h-1.26Zm2.51,0v-1.26h1.26v1.26h-1.26Zm0,0v-1.26h1.26v1.26h-1.26Zm-2.51,0v-1.26h1.26v1.26h-1.26Zm2.51,0v-1.26h1.26v1.26h-1.26Zm0,0v-1.26h1.25v1.26h-1.25Zm-2.52,0v-1.26h1.26v1.26h-1.26Zm2.51,0v-1.26h1.26v1.26h-1.26Zm0,0v-1.26h1.26v1.26h-1.26Zm0,0v-1.26h1.26v1.26h-1.26Zm0,0v-1.26h1.26v1.26h-1.26Zm2.51,0v-1.26h1.26v1.26h-1.26Zm0,0v-1.26h1.26v1.26h-1.26Zm0,0v-1.26h1.26v1.26h-1.26Zm0,0v-1.26h1.26v1.26h-1.26Zm0,0v-1.26h1.25v1.26h-1.25Zm0,0v-1.26h1.26v1.26h-1.26Zm0,0v-1.26h1.26v1.26h-1.26Zm0,0v-1.26h1.26v1.26h-1.26Zm0,0v-1.26h1.26v1.26h-1.26Zm0,0v-1.26h1.26v1.26h-1.26Zm0,0v-1.26h1.26v1.26h-1.26Zm2.51,0v-1.26h1.26v1.26h-1.26Zm0,0v-1.26h1.26v1.26h-1.26Zm-2.51,0v-1.26h1.26v1.26h-1.26Zm2.51,0v-1.26h1.26v1.26h-1.26Zm0,0v-1.26h1.25v1.26h-1.25Zm-2.52,0v-1.26h1.26v1.26h-1.26Zm2.51,0v-1.26h1.26v1.26h-1.26Zm0,0v-1.26h1.26v1.26h-1.26Zm0,0v-1.26h1.26v1.26h-1.26Zm0,0v-1.26h1.26v1.26h-1.26Zm0,0v-1.26h1.26v1.26h-1.26Zm0,0v-1.26h1.26v1.26h-1.26Zm0,0v-1.26h1.26v1.26h-1.26Zm0,0v-1.26h1.25v1.26h-1.25Zm0,0v-1.26h1.26v1.26h-1.26Zm0,0v-1.26h1.26v1.26h-1.26Zm0,0v-1.26h1.26v1.26h-1.26Zm0,0v-1.26h1.26v1.26h-1.26Zm0,0v-1.26h1.26v1.26h-1.26Zm0,0v-1.26h1.26v1.26h-1.26Zm2.51,0v-1.26h1.26v1.26h-1.26Zm0,0v-1.26h1.26v1.26h-1.26Zm-2.51,0v-1.26h1.26v1.26h-1.26Zm2.51,0v-1.26h1.26v1.26h-1.26Zm0,0v-1.26h1.25v1.26h-1.25Zm-2.52,0v-1.26h1.26v1.26h-1.26Zm2.51,0v-1.26h1.26v1.26h-1.26Zm0,0v-1.26h1.26v1.26h-1.26Zm0,0v-1.26h1.26v1.26h-1.26Zm0,0v-1.26h1.26v1.26h-1.26Zm2.51,0v-1.26h1.26v1.26h-1.26Z"/>
  <path d="m36.69,54.36v-1.26h1.26v1.26h-1.26Zm2.51,0v-1.26h1.26v1.26h-1.26Zm2.51,0v-1.26h1.25v1.26h-1.25Zm2.51,0v-1.26h1.26v1.26h-1.26Zm-12.57,0v-1.26h1.26v1.26h-1.26Zm2.51,0v-1.26h1.26v1.26h-1.26Zm2.51,0v-1.26h1.25v1.26h-1.25Zm2.51,0v-1.26h1.26v1.26h-1.26Zm7.54,0v-1.26h1.26v1.26h-1.26Zm0,0v-1.26h1.26v1.26h-1.26Zm2.51,0v-1.26h1.26v1.26h-1.26Zm0,0v-1.26h1.26v1.26h-1.26Zm-2.51,0v-1.26h1.26v1.26h-1.26Zm2.51,0v-1.26h1.26v1.26h-1.26Zm0,0v-1.26h1.25v1.26h-1.25Zm-2.52,0v-1.26h1.26v1.26h-1.26Zm2.51,0v-1.26h1.26v1.26h-1.26Zm0,0v-1.26h1.26v1.26h-1.26Zm0,0v-1.26h1.26v1.26h-1.26Zm0,0v-1.26h1.26v1.26h-1.26Zm0,0v-1.26h1.25v1.26h-1.25Zm2.51,0v-1.26h1.26v1.26h-1.26Zm2.51,0v-1.26h1.26v1.26h-1.26Zm0,0v-1.26h1.26v1.26h-1.26Zm2.51,0v-1.26h1.26v1.26h-1.26Zm0,0v-1.26h1.26v1.26h-1.26Zm-2.51,0v-1.26h1.26v1.26h-1.26Zm2.51,0v-1.26h1.26v1.26h-1.26Zm0,0v-1.26h1.25v1.26h-1.25Zm-2.52,0v-1.26h1.26v1.26h-1.26Zm2.51,0v-1.26h1.26v1.26h-1.26Zm0,0v-1.26h1.26v1.26h-1.26Zm0,0v-1.26h1.26v1.26h-1.26Zm0,0v-1.26h1.26v1.26h-1.26Zm0,0v-1.26h1.26v1.26h-1.26Zm0,0v-1.26h1.26v1.26h-1.26Zm2.51,0v-1.26h1.26v1.26h-1.26Zm0,0v-1.26h1.26v1.26h-1.26Zm-2.51,0v-1.26h1.26v1.26h-1.26Zm2.51,0v-1.26h1.26v1.26h-1.26Zm0,0v-1.26h1.25v1.26h-1.25Zm-2.52,0v-1.26h1.26v1.26h-1.26Zm2.51,0v-1.26h1.26v1.26h-1.26Zm0,0v-1.26h1.26v1.26h-1.26Zm0,0v-1.26h1.26v1.26h-1.26Zm0,0v-1.26h1.26v1.26h-1.26Zm0,0v-1.26h1.26v1.26h-1.26Zm0,0v-1.26h1.26v1.26h-1.26Zm0,0v-1.26h1.26v1.26h-1.26Zm0,0v-1.26h1.25v1.26h-1.25Zm0,0v-1.26h1.26v1.26h-1.26Zm0,0v-1.26h1.26v1.26h-1.26Zm0,0v-1.26h1.26v1.26h-1.26Zm0,0v-1.26h1.26v1.26h-1.26Zm0,0v-1.26h1.26v1.26h-1.26Zm0,0v-1.26h1.26v1.26h-1.26Zm2.51,0v-1.26h1.26v1.26h-1.26Zm0,0v-1.26h1.26v1.26h-1.26Zm-2.51,0v-1.26h1.26v1.26h-1.26Zm2.51,0v-1.26h1.26v1.26h-1.26Zm0,0v-1.26h1.25v1.26h-1.25Zm-2.52,0v-1.26h1.26v1.26h-1.26Zm2.51,0v-1.26h1.26v1.26h-1.26Zm0,0v-1.26h1.26v1.26h-1.26Zm0,0v-1.26h1.26v1.26h-1.26Zm0,0v-1.26h1.26v1.26h-1.26Zm2.51,0v-1.26h1.26v1.26h-1.26Zm0,0v-1.26h1.26v1.26h-1.26Zm0,0v-1.26h1.26v1.26h-1.26Zm0,0v-1.26h1.26v1.26h-1.26Zm0,0v-1.26h1.25v1.26h-1.25Zm0,0v-1.26h1.26v1.26h-1.26Zm0,0v-1.26h1.26v1.26h-1.26Zm0,0v-1.26h1.26v1.26h-1.26Zm0,0v-1.26h1.26v1.26h-1.26Zm0,0v-1.26h1.26v1.26h-1.26Zm0,0v-1.26h1.26v1.26h-1.26Zm2.51,0v-1.26h1.26v1.26h-1.26Zm0,0v-1.26h1.26v1.26h-1.26Zm-2.51,0v-1.26h1.26v1.26h-1.26Zm2.51,0v-1.26h1.26v1.26h-1.26Zm0,0v-1.26h1.25v1.26h-1.25Zm-2.52,0v-1.26h1.26v1.26h-1.26Zm2.51,0v-1.26h1.26v1.26h-1.26Zm0,0v-1.26h1.26v1.26h-1.26Zm0,0v-1.26h1.26v1.26h-1.26Zm0,0v-1.26h1.26v1.26h-1.26Zm0,0v-1.26h1.26v1.26h-1.26Zm0,0v-1.26h1.26v1.26h-1.26Zm0,0v-1.26h1.26v1.26h-1.26Zm0,0v-1.26h1.25v1.26h-1.25Zm0,0v-1.26h1.26v1.26h-1.26Zm0,0v-1.26h1.26v1.26h-1.26Zm0,0v-1.26h1.26v1.26h-1.26Zm0,0v-1.26h1.26v1.26h-1.26Zm0,0v-1.26h1.26v1.26h-1.26Zm0,0v-1.26h1.26v1.26h-1.26Zm2.51,0v-1.26h1.26v1.26h-1.26Zm0,0v-1.26h1.26v1.26h-1.26Zm-2.51,0v-1.26h1.26v1.26h-1.26Zm2.51,0v-1.26h1.26v1.26h-1.26Zm0,0v-1.26h1.25v1.26h-1.25Zm-2.52,0v-1.26h1.26v1.26h-1.26Zm2.51,0v-1.26h1.26v1.26h-1.26Zm0,0v-1.26h1.26v1.26h-1.26Zm0,0v-1.26h1.26v1.26h-1.26Zm0,0v-1.26h1.26v1.26h-1.26Zm2.51,0v-1.26h1.26v1.26h-1.26Z"/>
</svg>