<?xml version="1.0" encoding="UTF-8"?>
<svg xmlns="http://www.w3.org/2000/svg" viewBox="0 0 64.64 68.97">
  <path d="m60.81,68.97H3.83c-2.11,0-3.83-1.72-3.83-3.83V21.16c0-2.11,1.72-3.83,3.83-3.83h17.57l.06-3.8-5.86-.06c-2.11,0-3.83-1.72-3.83-3.83V3.83c0-2.11,1.72-3.83,3.83-3.83h33.44c2.11,0,3.83,1.72,3.83,3.83v5.8c0,2.11-1.72,3.83-3.83,3.83h-5.8l-.06,3.8s.03.06.06.06h17.57c2.11,0,3.83,1.72,3.83,3.83v43.97c0,2.11-1.72,3.83-3.83,3.83ZM3.83,21.1l-.06,44.04,57.04.06.06-44.04-17.63-.06c-2.11,0-3.83-1.72-3.83-3.83v-3.74c0-2.11,1.72-3.83,3.83-3.83h5.8l.06-5.86-7.81-.06H15.6l-.06,5.86,5.86.06c2.11,0,3.83,1.72,3.83,3.83v3.74c0,2.11-1.72,3.83-3.83,3.83H3.83Z"/>
</svg>