<?xml version="1.0" encoding="UTF-8"?>
<svg xmlns="http://www.w3.org/2000/svg" viewBox="0 0 105.5 67.5">
  <g>
    <path d="m61.7,33.74v.06c-.02,8.71-3.38,16.9-9.01,21.92l-.84-.94c5.36-4.79,8.57-12.63,8.59-20.99v-.06c0-8.36-3.13-15.97-8.6-20.88l.84-.93c5.73,5.15,9.01,13.1,9.01,21.82Z"/>
    <polygon points="53.87 56.35 50.15 56.92 51.51 53.42 53.87 56.35"/>
    <polygon points="53.86 11.31 50.15 10.69 51.47 14.21 53.86 11.31"/>
  </g>
  <path d="m88.83,67.5H5.29c-2.92,0-5.29-2.37-5.29-5.29,0-.12.01-.25.04-.37L11.39,5.08c.11-2.82,2.44-5.08,5.28-5.08h83.54c2.92,0,5.29,2.37,5.29,5.29,0,.12-.01.25-.04.37l-11.35,56.76c-.11,2.82-2.44,5.08-5.28,5.08ZM3.78,62.36c.07.77.72,1.37,1.51,1.37h83.54c.84,0,1.52-.68,1.52-1.52,0-.12.01-.25.04-.37l11.34-56.71c-.07-.77-.72-1.37-1.51-1.37H16.67c-.84,0-1.52.68-1.52,1.52,0,.12-.01.25-.04.37L3.78,62.36Z"/>
  <path d="m100.21,66.25h-.3v-1.26h.3c.26,0,.52-.04.77-.11l.35,1.21c-.36.1-.74.16-1.12.16Zm-1.55,0h-1.26v-1.26h1.26v1.26Zm-2.51,0h-1.26v-1.26h1.26v1.26Zm-2.51,0h-1.26v-1.26h1.26v1.26Zm-2.51,0h-1.26v-1.26h1.26v1.26Zm-2.51,0h-1.26v-1.26h1.26v1.26Zm-2.51,0h-1.26v-1.26h1.26v1.26Zm-2.51,0h-1.26v-1.26h1.26v1.26Zm-2.51,0h-1.26v-1.26h1.26v1.26Zm-2.51,0h-1.26v-1.26h1.26v1.26Zm-2.51,0h-1.26v-1.26h1.26v1.26Zm-2.51,0h-1.26v-1.26h1.26v1.26Zm-2.51,0h-1.26v-1.26h1.26v1.26Zm-2.51,0h-1.26v-1.26h1.26v1.26Zm-2.51,0h-1.26v-1.26h1.26v1.26Zm-2.51,0h-1.26v-1.26h1.26v1.26Zm-2.51,0h-1.26v-1.26h1.26v1.26Zm-2.51,0h-1.26v-1.26h1.26v1.26Zm-2.51,0h-1.26v-1.26h1.26v1.26Zm-2.51,0h-1.26v-1.26h1.26v1.26Zm-2.51,0h-1.26v-1.26h1.26v1.26Zm-2.51,0h-1.26v-1.26h1.26v1.26Zm-2.51,0h-1.26v-1.26h1.26v1.26Zm-2.51,0h-1.26v-1.26h1.26v1.26Zm-2.51,0h-1.26v-1.26h1.26v1.26Zm-2.51,0h-1.26v-1.26h1.26v1.26Zm-2.51,0h-1.26v-1.26h1.26v1.26Zm-2.51,0h-1.26v-1.26h1.26v1.26Zm-2.51,0h-1.26v-1.26h1.26v1.26Zm-2.51,0h-1.26v-1.26h1.26v1.26Zm-2.51,0h-1.26v-1.26h1.26v1.26Zm-2.51,0h-1.26v-1.26h1.26v1.26Zm-2.51,0h-1.26v-1.26h1.26v1.26Zm-2.51,0h-1.26v-1.26h1.26v1.26Zm-2.67-.16c-.48-.14-.92-.36-1.32-.66l.76-1c.28.21.58.37.91.46l-.34,1.21Zm87.1-.66l-.76-1c.27-.21.5-.46.68-.75l1.07.66c-.26.43-.6.8-.99,1.1Zm-89.42-1.1c-.26-.43-.44-.89-.53-1.38l1.24-.23c.06.34.18.66.37.95l-1.07.65Zm90.94-1.38l-1.24-.23c.03-.16.04-.33.04-.5l-.11-.5,1.23-.25.13.63c.01.37-.01.62-.05.85Zm-91.65-1.23l-.25-1.23,1.23-.25.25,1.23-1.23.25Zm90.1-1.24l-.25-1.23,1.23-.25.25,1.23-1.23.25Zm-90.59-1.23l-.25-1.23,1.23-.25.25,1.23-1.23.25Zm90.1-1.23l-.25-1.23,1.23-.25.25,1.23-1.23.25Zm-90.59-1.23l-.25-1.23,1.23-.25.25,1.23-1.23.25Zm90.1-1.23l-.25-1.23,1.23-.25.25,1.23-1.23.25Zm-90.59-1.23l-.25-1.23,1.23-.25.25,1.23-1.23.25Zm90.1-1.24l-.25-1.23,1.23-.25.25,1.23-1.23.25Zm-90.59-1.23l-.25-1.23,1.23-.25.25,1.23-1.23.25Zm90.1-1.23l-.25-1.23,1.23-.25.25,1.23-1.23.25Zm-90.59-1.23l-.25-1.23,1.23-.25.25,1.23-1.23.25Zm90.1-1.24l-.25-1.23,1.23-.25.25,1.23-1.23.25Zm-90.59-1.23l-.25-1.23,1.23-.25.25,1.23-1.23.25Zm90.1-1.24l-.25-1.23,1.23-.25.25,1.23-1.23.25Zm-90.59-1.23l-.25-1.23,1.23-.25.25,1.23-1.23.25Zm90.1-1.23l-.25-1.23,1.23-.25.25,1.23-1.23.25Zm-90.59-1.23l-.25-1.23,1.23-.25.25,1.23-1.23.25Zm90.1-1.24l-.25-1.23,1.23-.25.25,1.23-1.23.25Zm-90.59-1.23l-.25-1.23,1.23-.25.25,1.23-1.23.25Zm90.1-1.23l-.25-1.23,1.23-.25.25,1.23-1.23.25Zm-90.59-1.23l-.25-1.23,1.23-.25.25,1.23-1.23.25Zm90.1-1.24l-.25-1.23,1.23-.25.25,1.23-1.23.25Zm-90.59-1.23l-.25-1.23,1.23-.25.25,1.23-1.23.25Zm-.49-2.47l-.25-1.23,1.23-.25.25,1.23-1.23.25Zm-.49-2.46l-.25-1.23,1.23-.25.25,1.23-1.23.25Zm-.49-2.47l-.25-1.23,1.23-.25.25,1.23-1.23.25Zm-.49-2.46l-.25-1.23,1.23-.25.25,1.23-1.23.25Zm-.49-2.47l-.25-1.23,1.23-.25.25,1.23-1.23.25Zm-.49-2.47l-.25-1.23,1.23-.25.25,1.23-1.23.25Zm-.49-2.46l-.25-1.23,1.23-.25.25,1.23-1.23.25Zm-.49-2.47l-.25-1.23,1.23-.25.25,1.23-1.23.25Zm-.49-2.46l-.25-1.23,1.23-.25.25,1.23-1.23.25Zm-.49-2.47l-.25-1.23,1.23-.25.25,1.23-1.23.25Zm-.49-2.47l-.25-1.23,1.23-.25.25,1.23-1.23.25Zm.85-2.52l-1.25-.14c.06-.5.2-.97.44-1.42l1.11.58c-.16.3-.26.63-.3.97Zm.93-1.77l-.83-.95c.38-.33.81-.58,1.27-.75l.43,1.18c-.32.12-.62.29-.88.52Zm13.21-.68h-1.26v-1.26h1.26v1.26Zm-2.51,0h-1.26v-1.26h1.26v1.26Zm-2.51,0h-1.26v-1.26h1.26v1.26Zm-2.51,0h-1.26v-1.26h1.26v1.26Zm-2.51,0h-1.26v-1.26h1.26v1.26Z"/>
</svg>