<?xml version="1.0" encoding="UTF-8"?>
<svg xmlns="http://www.w3.org/2000/svg" viewBox="0 0 147.17 21.73">
  <path d="m104.5,10.86c0,4.46,1.76,6.93,6.24,6.93,4.48,0,6.24-2.47,6.24-6.93s-1.76-6.93-6.24-6.93c-4.48,0-6.24,2.47-6.24,6.93m6.24-10.86c7.46,0,11.73,3.12,11.73,10.86,0,7.74-4.27,10.86-11.73,10.86-7.46,0-11.73-3.12-11.73-10.86,0-7.74,4.27-10.86,11.73-10.86Z"/>
  <path d="m5.49,10.86c0,4.46,1.76,6.93,6.24,6.93,4.48,0,6.24-2.47,6.24-6.93,0-4.46-1.76-6.93-6.24-6.93s-6.24,2.47-6.24,6.93M11.73,0c7.46,0,11.73,3.12,11.73,10.86,0,7.74-4.27,10.86-11.73,10.86-7.46,0-11.73-3.12-11.73-10.86S4.27,0,11.73,0Z"/>
  <path d="m27.83,21.28c-.75,0-1.37-.62-1.37-1.37V1.82c0-.74.6-1.37,1.34-1.37h4.3c.72,0,1.55.68,2,1.37l8.81,13.51V1.79c0-.74.63-1.34,1.37-1.34h2.51c.78,0,1.37.6,1.37,1.37v18.1c0,.74-.6,1.37-1.37,1.37h-4.84c-.78,0-1.64-.62-2.12-1.37l-8.06-12.47v12.47c0,.74-.63,1.37-1.37,1.37h-2.57Z"/>
  <path d="m53.71,21.28c-.75,0-1.37-.62-1.37-1.4V1.82c0-.77.63-1.4,1.37-1.4h2.75c.75,0,1.37.62,1.37,1.4v6.96h3.14c1.7,0,2.93-.86,4.09-2.95l2.27-4.02c.54-.95,1.34-1.4,2.09-1.4h3.37c.75,0,.9.6.45,1.4l-3.16,5.71c-.75,1.34-1.73,2.74-3.76,3.21,1.43.3,2.93,2.11,3.76,3.39l3.64,5.77c.48.77.27,1.37-.51,1.37h-3.34c-.75,0-1.76-.6-2.24-1.37l-2.57-4.05c-1.1-1.76-2.21-2.98-4.09-2.98h-3.14v7.05c0,.74-.63,1.34-1.37,1.34h-2.75Z"/>
  <path d="m81.57,4.55v5h6.21c1.67,0,3.79-.6,3.79-2.5s-2.12-2.5-3.79-2.5h-6.21Zm0,9.11v6.25c0,.74-.6,1.37-1.37,1.37h-2.75c-.75,0-1.37-.63-1.37-1.37V1.82c0-.77.6-1.37,1.34-1.37h12.03c4.36,0,7.61,2.5,7.61,6.61,0,3.21-2.48,4.7-5.49,5.3,1.22.45,2.12,1.49,3.31,3.36l2.66,4.2c.48.77.27,1.37-.51,1.37h-3.49c-.75,0-1.76-.6-2.24-1.37l-2.48-3.87c-.75-1.16-1.82-2.38-3.7-2.38h-3.55Z"/>
  <path d="m126.84,21.28c-.75,0-1.37-.62-1.37-1.37V1.82c0-.74.6-1.37,1.34-1.37h4.3c.72,0,1.55.68,2,1.37l8.81,13.51V1.79c0-.74.63-1.34,1.37-1.34h2.51c.78,0,1.37.6,1.37,1.37v18.1c0,.74-.6,1.37-1.37,1.37h-4.84c-.78,0-1.64-.62-2.12-1.37l-8.06-12.47v12.47c0,.74-.63,1.37-1.37,1.37h-2.57Z"/>
</svg>