<?xml version="1.0" encoding="UTF-8"?>
<svg xmlns="http://www.w3.org/2000/svg" viewBox="0 0 12.47 67.51">
    <path d="m10.18,67.07c-1.03,0-1.86-.83-1.86-1.86V2.3c0-1.03.83-1.86,1.86-1.86s1.86.83,1.86,1.86v62.91c0,1.03-.83,1.86-1.86,1.86Z"/>
    <path d="m10.18,67.51c-1.27,0-2.3-1.03-2.3-2.3V2.3c0-1.27,1.03-2.3,2.3-2.3s2.3,1.03,2.3,2.3v62.91c0,1.27-1.03,2.3-2.3,2.3ZM10.18.88c-.78,0-1.42.64-1.42,1.42v62.91c0,.78.64,1.42,1.42,1.42s1.42-.64,1.42-1.42V2.3c0-.78-.64-1.42-1.42-1.42Z"/>
    <path d="m6.69,41.02c-.9,0-1.62-.73-1.62-1.62v-11.28c0-.9.73-1.62,1.62-1.62s1.62.73,1.62,1.62v11.28c0,.9-.73,1.62-1.62,1.62Z"/>
    <path d="m6.69,41.45c-1.14,0-2.06-.92-2.06-2.06v-11.28c0-1.14.92-2.06,2.06-2.06s2.06.92,2.06,2.06v11.28c0,1.14-.92,2.06-2.06,2.06Zm0-14.52c-.65,0-1.18.53-1.18,1.18v11.28c0,.65.53,1.18,1.18,1.18s1.18-.53,1.18-1.18v-11.28c0-.65-.53-1.18-1.18-1.18Z"/>
    <path d="m2.33,45.61c-1.03,0-1.86-.83-1.86-1.86v-20.92c0-1.03.83-1.86,1.86-1.86s1.86.83,1.86,1.86v20.92c0,1.03-.83,1.86-1.86,1.86Z"/>
    <path d="m2.33,46.05c-1.27,0-2.3-1.03-2.3-2.3v-20.92c0-1.27,1.03-2.3,2.3-2.3s2.3,1.03,2.3,2.3v20.92c0,1.27-1.03,2.3-2.3,2.3Zm0-24.64c-.78,0-1.42.64-1.42,1.42v20.92c0,.78.64,1.42,1.42,1.42s1.42-.64,1.42-1.42v-20.92c0-.78-.64-1.42-1.42-1.42Z"/>
  <path d="m.52,60.33c-.28,0-.52-.23-.52-.52V6.86c0-.28.23-.52.52-.52s.52.23.52.52v52.95c0,.28-.23.52-.52.52Z"/>
</svg>