<?xml version="1.0" encoding="UTF-8"?>
<svg xmlns="http://www.w3.org/2000/svg" viewBox="0 0 104.18 67.51">
  <g>
    <rect x="3.29" y="33.85" width="94.95" height="1.26" transform="translate(-10.44 30.08) rotate(-30.07)"/>
    <polygon points="11.09 59.61 7.33 59.61 9.21 56.36 11.09 59.61"/>
    <polygon points="92.32 12.6 94.19 9.34 90.43 9.35 92.32 12.6"/>
  </g>
  <path d="m98.89,67.51H5.29c-2.92,0-5.29-2.37-5.29-5.29V5.29C0,2.37,2.37,0,5.29,0h93.6c2.92,0,5.29,2.37,5.29,5.29v56.93c0,2.92-2.37,5.29-5.29,5.29ZM5.29,3.77c-.84,0-1.52.68-1.52,1.52v56.93c0,.84.68,1.52,1.52,1.52h93.6c.84,0,1.52-.68,1.52-1.52V5.29c0-.84-.68-1.52-1.52-1.52H5.29Z"/>
</svg>